<?xml version="1.0" encoding="iso-8859-1"?>
<!-- Uploaded to: SVG Repo, www.svgrepo.com, Generator: SVG Repo Mixer Tools -->
<svg height="800px" width="800px" version="1.1" id="Layer_1" xmlns="http://www.w3.org/2000/svg" xmlns:xlink="http://www.w3.org/1999/xlink" 
	 viewBox="0 0 512 512" xml:space="preserve">
<path style="fill:#A78966;" d="M488.727,302.545h-23.273H256H46.545H23.273C10.42,302.545,0,292.125,0,279.273v108.606v62.061
	c0,12.853,10.42,23.273,23.273,23.273s23.273-10.42,23.273-23.273v-38.788H256h209.455v38.788c0,12.853,10.42,23.273,23.273,23.273
	S512,462.792,512,449.939v-62.061V279.273C512,292.125,501.58,302.545,488.727,302.545z"/>
<path style="fill:#FFB655;" d="M488.727,162.909h-38.788h-23.273h-23.273H279.273H256h-23.273H108.606H85.333H62.061H23.273
	C10.42,162.909,0,173.329,0,186.182v93.091c0,12.853,10.42,23.273,23.273,23.273h23.273H256h209.455h23.273
	c12.853,0,23.273-10.42,23.273-23.273v-93.091C512,173.329,501.58,162.909,488.727,162.909z"/>
<path style="fill:#D6D5D8;" d="M426.667,38.788H256H85.333c-12.853,0-23.273,10.42-23.273,23.273v100.848h23.273h23.273h124.121H256
	h23.273h124.121h23.273h23.273V62.061C449.939,49.208,439.519,38.788,426.667,38.788z"/>
<path style="fill:#806749;" d="M46.545,302.545H23.273C10.42,302.545,0,292.125,0,279.273v108.606v62.061
	c0,12.853,10.42,23.273,23.273,23.273s23.273-10.42,23.273-23.273v-38.788H256V302.545H46.545z"/>
<path style="fill:#A9A8AE;" d="M108.606,162.909h124.121H256V38.788H85.333c-12.853,0-23.273,10.42-23.273,23.273v100.848h23.273
	H108.606z"/>
<path style="fill:#EE8700;" d="M23.273,302.545h23.273H256V162.909h-23.273H108.606H85.333H62.061H23.273
	C10.42,162.909,0,173.329,0,186.182v93.091C0,292.125,10.42,302.545,23.273,302.545z"/>
</svg>